<?xml version="1.0" standalone="no"?><!DOCTYPE svg PUBLIC "-//W3C//DTD SVG 1.1//EN" "http://www.w3.org/Graphics/SVG/1.1/DTD/svg11.dtd"><svg t="1595308557676" class="icon" viewBox="0 0 1024 1024" version="1.1" xmlns="http://www.w3.org/2000/svg" p-id="8891" xmlns:xlink="http://www.w3.org/1999/xlink" width="200" height="200"><defs><style type="text/css"></style></defs><path d="M350.921423 64.326051l318.757591-0.413416-57.66669 83.830267-203.11516-0.537236L350.921423 64.326051 350.921423 64.326051zM410.364646 164.773787l201.358071 0c-0.4953 51.215452 1.529905 108.301612-62.399675 134.840034-39.788799 16.493649-79.7618 5.539156-95.615509-6.365988C408.029365 258.938424 410.737144 212.310454 410.364646 164.773787L410.364646 164.773787zM207.31191 440.693977l3.141679 494.838132c0 0-6.283358 38.442544 22.488075-11.388375l82.469579-142.857639c6.118598-10.561543-0.227183-196.142216 2.79067-184.918593 4.732985 17.878183 18.167499 131.119293 21.744101 131.119293l35.94408 0.040932 277.255708-374.880039-360.448794 0.826831C228.683513 353.59834 203.902114 393.756969 207.31191 440.693977L207.31191 440.693977zM706.056994 353.061105c1.447014-1.901303 107.065751-10.044774 105.908344 69.052702-0.744997 48.405453 5.022593 520.322549 5.022593 520.322549s0.70304 13.662161-11.926099-4.732791c-12.566715-18.415418-95.574575-156.416446-95.574575-156.416446l-2.852071-187.151447c0 0-5.415558 18.08489-14.095597 62.810534-8.598171 44.747133-14.158021 70.582545-14.158021 70.582545l-253.961235-0.24764L706.056994 353.061105 706.056994 353.061105zM348.213644 772.08862l327.625926 0 114.196441 187.915857-535.969372 0.082888c-5.725633 0-6.842106-9.197476 0.206716-21.61939L348.213644 772.08862z" p-id="8892" ></path></svg>
