<?xml version="1.0" standalone="no"?><!DOCTYPE svg PUBLIC "-//W3C//DTD SVG 1.1//EN" "http://www.w3.org/Graphics/SVG/1.1/DTD/svg11.dtd"><svg t="1595308230616" class="icon" viewBox="0 0 1024 1024" version="1.1" xmlns="http://www.w3.org/2000/svg" p-id="4104" xmlns:xlink="http://www.w3.org/1999/xlink" width="200" height="200"><defs><style type="text/css"></style></defs><path d="M948.418 327.625c-23.858-56.406-58.005-107.056-101.496-150.547-43.491-43.49-94.142-77.638-150.547-101.496C637.962 50.876 575.93 38.348 512 38.348c-63.93 0-125.963 12.527-184.375 37.233-56.406 23.858-107.056 58.007-150.547 101.497-43.49 43.491-77.638 94.141-101.496 150.547C50.876 386.038 38.348 448.07 38.348 512c0 63.93 12.527 125.963 37.233 184.375 23.858 56.405 58.007 107.056 101.497 150.547 43.491 43.491 94.141 77.638 150.547 101.496C386.037 973.125 448.07 985.652 512 985.652c63.93 0 125.963-12.527 184.375-37.234 56.405-23.858 107.056-58.005 150.547-101.496s77.638-94.142 101.496-150.547C973.125 637.962 985.652 575.93 985.652 512c0-63.93-12.528-125.963-37.234-184.375z m-51.807 346.837c-21.022 49.702-51.122 94.343-89.465 132.684s-82.984 68.443-132.684 89.465c-51.441 21.757-106.102 32.79-162.462 32.79-56.362 0-111.022-11.033-162.462-32.79-49.701-21.022-94.342-51.122-132.684-89.465-38.343-38.342-68.442-82.984-89.465-132.684C105.632 623.021 94.599 568.36 94.599 512c0-56.362 11.033-111.022 32.79-162.462 21.022-49.701 51.122-94.342 89.465-132.684 38.342-38.343 82.984-68.442 132.684-89.465 51.441-21.757 106.101-32.79 162.462-32.79 56.361 0 111.022 11.033 162.462 32.79 49.702 21.022 94.343 51.122 132.684 89.465 38.342 38.342 68.443 82.984 89.465 132.684 21.757 51.441 32.79 106.101 32.79 162.462 0 56.361-11.033 111.022-32.79 162.462z" p-id="4105" ></path><path d="M802.879 487.912H702.184l-36.901-117.353c-1.809-6.748-8.741-10.752-15.488-8.944l-21.601 0.264c-6.532-1.75-11.665 3.705-13.417 10.239l-53.732 257.935-72.682-359.112c-1.751-6.533-8.464-10.408-14.999-8.658 0 0-18.277 0.353-26.971 0.353-8.695 0-11.385 8.616-11.385 8.616L380.73 555.067l-19.285-60.172c-1.848-6.773-8.27-7.635-15.833-7.394l-124.492 0.408c-6.983 0-12.647 5.664-12.647 12.647v25.293c0 6.984 5.663 12.646 12.647 12.646h100.141l37.079 115.682c1.849 6.771 8.936 10.788 15.833 8.974l19.672-0.267c6.678 1.756 14.332-3.713 16.12-10.269l55.597-261.457L538.9 753.056c1.75 6.533 8.463 10.41 14.994 8.66 0 0 13.367-0.224 21.271-0.224s9.108-14.633 9.108-14.633l59.105-277.477 18.869 60.001c1.808 6.745 8.741 10.75 15.49 8.941l125.143 0.174c6.985 0 12.647-5.66 12.645-12.646v-25.293c0.002-6.982-5.658-12.647-12.646-12.647z" p-id="4106"></path></svg>
