<?xml version="1.0" standalone="no"?><!DOCTYPE svg PUBLIC "-//W3C//DTD SVG 1.1//EN" "http://www.w3.org/Graphics/SVG/1.1/DTD/svg11.dtd"><svg t="1595299801773" class="icon" viewBox="0 0 1024 1024" version="1.1" xmlns="http://www.w3.org/2000/svg" p-id="2099" xmlns:xlink="http://www.w3.org/1999/xlink" width="200" height="200"><defs><style type="text/css"></style></defs><path d="M566.215111 899.811556v118.158222h-85.333333v-114.915556C294.4 888.718222 147.342222 735.573333 147.342222 562.688a42.666667 42.666667 0 0 1 85.333334 0c0 134.257778 123.790222 256.113778 276.764444 256.113778s276.707556-121.912889 276.707556-256.113778a42.666667 42.666667 0 1 1 85.333333 0c0 164.067556-132.380444 310.385778-305.265778 337.123556zM510.976 33.336889a170.666667 170.666667 0 0 1 170.666667 170.666667v341.333333a170.666667 170.666667 0 1 1-341.333334 0v-341.333333a170.666667 170.666667 0 0 1 170.666667-170.666667z"  p-id="2100"></path></svg>
