<?xml version="1.0" standalone="no"?><!DOCTYPE svg PUBLIC "-//W3C//DTD SVG 1.1//EN" "http://www.w3.org/Graphics/SVG/1.1/DTD/svg11.dtd"><svg t="1595300248718" class="icon" viewBox="0 0 1024 1024" version="1.1" xmlns="http://www.w3.org/2000/svg" p-id="5004" xmlns:xlink="http://www.w3.org/1999/xlink" width="400" height="400"><defs><style type="text/css"></style></defs><path d="M702.088533 208.4864h-104.106666V155.4432A52.736 52.736 0 0 0 545.928533 102.4h-104.106666a52.736 52.736 0 0 0-52.053334 53.077333v53.009067h-104.106666v106.154667h416.426666v-106.154667z m-156.16 0h-104.106666V155.5456h103.901866v52.9408zM761.173333 955.733333H230.843733a81.92 81.92 0 0 1-76.219733-86.2208V292.590933a81.92 81.92 0 0 1 76.219733-86.254933h8.635734a27.067733 27.067733 0 0 1 24.9856 28.740267 27.067733 27.067733 0 0 1-24.9856 28.7744h-8.635734a27.613867 27.613867 0 0 0-26.248533 28.740266v576.853334a27.613867 27.613867 0 0 0 26.248533 28.740266H761.173333a27.613867 27.613867 0 0 0 26.248534-28.740266v-576.853334a27.613867 27.613867 0 0 0-26.248534-28.740266 27.067733 27.067733 0 0 1-24.9856-28.7744 27.067733 27.067733 0 0 1 24.9856-28.740267 81.92 81.92 0 0 1 76.219734 86.254933v576.853334A81.92 81.92 0 0 1 761.173333 955.733333z m-82.807466-106.769066a241.015467 241.015467 0 0 1-34.133334-30.5152l-27.306666-27.716267-22.869334 10.001067a213.640533 213.640533 0 0 1-98.986666 21.742933 238.933333 238.933333 0 0 1-199.816534-101.512533 252.245333 252.245333 0 0 1-45.499733-124.757334v-10.820266h66.628267l1.6384 15.837866a187.153067 187.153067 0 0 0 122.0608 152.302934 133.12 133.12 0 0 0 54.9888 6.0416 122.2656 122.2656 0 0 0 59.2896-7.714134 183.261867 183.261867 0 0 0 111.650133-226.952533 201.045333 201.045333 0 0 0-34.133333-63.3856l-7.406934-8.567467V365.226667l8.260267 4.983466a315.869867 315.869867 0 0 1 60.996267 62.6688 255.112533 255.112533 0 0 1 41.403733 167.253334 250.197333 250.197333 0 0 1-50.756267 127.488l-14.984533 20.104533 24.405333 25.224533c25.4976 26.350933 30.378667 33.314133 30.378667 43.178667a43.588267 43.588267 0 0 1-14.6432 28.398933 38.946133 38.946133 0 0 1-31.163733 4.266667z m-239.889067-204.526934v-67.2768h-102.4V535.893333h102.4v-19.182933h-102.4v-43.997867h102.775467l-0.853334-8.942933-0.853333-8.942933-50.5856-0.853334-50.551467-0.750933v-40.96h102.4V389.12c0-27.067733-0.785067-26.385067 29.661867-26.385067s29.661867-0.682667 29.661867 26.385067v23.074133h56.593066a396.5952 396.5952 0 0 1 56.763734 2.048c0.4096 5.154133 0.580267 27.306667 0.2048 33.655467l-0.375467 6.826667h-111.8208l-0.853333 8.942933-0.853334 8.942933h56.490667a157.218133 157.218133 0 0 1 57.719467 3.413334 109.6704 109.6704 0 0 1 0.477866 21.2992l-0.750933 17.851733-56.797867 0.750933-56.763733 0.750934v19.217066H610.986667v67.310934c0 63.658667-0.3072 67.618133-5.393067 72.8064s-8.977067 5.495467-48.64 5.495466h-43.281067l0.785067-19.933866 0.955733-19.8656 18.193067-0.8192 18.193067-0.8192v-62.907734h-54.0672v134.656h-59.2896v-67.345066z m-177.322667-129.706666l-14.2336-1.024 0.750934-29.3888 0.750933-29.3888 34.372267-0.955734 34.372266-0.785066v63.351466l-20.8896-0.341333c-11.502933-0.3072-27.306667-0.989867-35.157333-1.536z" p-id="5005" ></path></svg>
