<?xml version="1.0" standalone="no"?><!DOCTYPE svg PUBLIC "-//W3C//DTD SVG 1.1//EN" "http://www.w3.org/Graphics/SVG/1.1/DTD/svg11.dtd"><svg t="1595308152168" class="icon" viewBox="0 0 1024 1024" version="1.1" xmlns="http://www.w3.org/2000/svg" p-id="1655" xmlns:xlink="http://www.w3.org/1999/xlink" width="200" height="200"><defs><style type="text/css"></style></defs><path d="M69.51 70.52v891.67h891.66V70.52z m827.66 827.67H133.51V134.52h763.66z" p-id="1656" ></path><path d="M275.9 463.27v350.38h64V463.27a84 84 0 0 0 0-155.35v-94.24h-64v94.24a84 84 0 0 0 0 155.35z m32-119.77a42 42 0 0 1 32 69.19v0.1a42 42 0 0 1-64 0v-0.1a42 42 0 0 1 32-69.19zM477.82 717.41v94.24h64v-94.24a84 84 0 0 0 0-155.35V211.68h-64v350.38a84 84 0 0 0 0 155.35z m32-119.91a42 42 0 0 1 32 69.19v0.24a42 42 0 0 1-64 0v-0.24a42 42 0 0 1 32-69.19zM682.38 463.27v350.38h64V463.27a84 84 0 0 0 0-155.35v-94.24h-64v94.24a84 84 0 0 0 0 155.35z m32-119.77a42 42 0 0 1 32 69.19v0.1a42 42 0 0 1-64 0v-0.1a42 42 0 0 1 32-69.19z" p-id="1657" fill="#e6e6e6"></path></svg>
