<?xml version="1.0" standalone="no"?><!DOCTYPE svg PUBLIC "-//W3C//DTD SVG 1.1//EN" "http://www.w3.org/Graphics/SVG/1.1/DTD/svg11.dtd"><svg t="1597731891865" class="icon" viewBox="0 0 1024 1024" version="1.1" xmlns="http://www.w3.org/2000/svg" p-id="2620" xmlns:xlink="http://www.w3.org/1999/xlink" width="200" height="200"><defs><style type="text/css"></style></defs><path d="M256 1024a42.666667 42.666667 0 0 1 0-85.333333h213.333333V213.333333H242.133333l139.392 413.013334a42.666667 42.666667 0 0 1 2.005334 9.045333l0.256 4.608a42.666667 42.666667 0 0 1-42.666667 42.666667h-255.573333a42.666667 42.666667 0 0 1-40.405334-56.32L184.533333 213.333333H42.666667a42.666667 42.666667 0 0 1 0-85.333333h426.666666V42.666667a42.666667 42.666667 0 0 1 85.333334 0v85.333333h426.666666a42.666667 42.666667 0 0 1 0 85.333333h-141.866666l139.392 413.013334a42.666667 42.666667 0 0 1 2.005333 9.045333l0.256 4.608a42.666667 42.666667 0 0 1-42.666667 42.666667h-255.573333a42.666667 42.666667 0 0 1-40.405333-56.32L781.866667 213.333333H554.666667v725.333334h213.333333a42.666667 42.666667 0 0 1 0 85.333333H256z"  p-id="2621"></path></svg>
