<?xml version="1.0" standalone="no"?><!DOCTYPE svg PUBLIC "-//W3C//DTD SVG 1.1//EN" "http://www.w3.org/Graphics/SVG/1.1/DTD/svg11.dtd"><svg t="1605968073503" class="icon" viewBox="0 0 1024 1024" version="1.1" xmlns="http://www.w3.org/2000/svg" p-id="6110" xmlns:xlink="http://www.w3.org/1999/xlink" width="200" height="200"><defs><style type="text/css"></style></defs><path d="M615.915029 798.931756c0.02762-25.281854 5.695936-49.249183 15.774306-70.7317L296.814737 811.3241l-59.713215 0 48.027748-144.853546 365.257015-90.694074 30.265798 91.337526c14.927281-11.604651 31.900515-20.693802 50.245562-26.714022l-25.824032-78.098158-42.769646-128.982058-45.281055-136.552088L564.527824 138.234885C560.699844 126.748899 549.979045 118.973251 537.972364 118.973251l-110.368991 0c-12.124324 0-22.845123 7.775648-26.555461 19.261634l-76.567784 231.309427-53.34416 161.045227-50.422537 152.072695-43.3241 130.532891-3.826957 11.603628-77.971309 0C80.079664 824.798753 67.605483 837.366026 67.605483 852.915277l0 37.73353c0 15.432631 12.590801 28.02957 27.986605 28.02957l571.06567 0C635.371029 888.311305 615.88434 845.871057 615.915029 798.931756zM447.615872 175.76382l70.345015 0 0.321215 0.994334c-0.555477 20.342921-16.0679 36.651221-35.436947 36.651221-19.368024 0-35.114709-16.425942-35.434901-36.885483L447.615872 175.76382zM388.778326 353.322965l173.675924-43.081654 45.16239 136.435469-272.181451 67.721079L388.778326 353.322965zM910.941602 767.745279l-24.655792 0c-2.337502-4.998266-5.610006-15.432631-9.846154-22.856376l17.411069-16.923109c5.52203-5.524076 5.52203-14.175393 0.029666-19.670825l-19.893834-19.757778c-5.492364-5.49441-14.37385-5.4361-19.866214 0.059333l-16.445379 17.448919c-7.420675-4.208527-17.849926-7.482054-22.845123-9.790913L814.829842 671.585439c0-7.774625-8.24008-14.058773-15.979924-14.058773l-28.133914 0c-7.739844 0-15.977878 6.285171-15.977878 14.058773l0 24.668068c-5.024863 2.308859-15.426494 5.611029-22.845123 9.820579l-16.914925-17.419253c-5.52203-5.49441-14.170278-5.49441-19.660595 0l-19.748571 19.904064c-5.492364 5.465766-5.435077 14.381011 0.05831 19.875421l17.440735 16.455608c-4.207504 7.423744-7.478985 17.85811-9.785798 22.856376l-24.657838 0c-7.770533 0-14.080256 8.242126-14.080256 15.988108l0 28.14619c0 7.744959 6.309722 15.988108 14.080256 15.988108l24.657838 0c2.335457 5.026909 5.60796 15.432631 9.814442 22.856376l-17.411069 16.951752c-5.492364 5.49441-5.492364 14.146749 0 19.641159l19.866214 19.757778c5.490318 5.49441 14.401471 5.4361 19.893834-0.059333l16.447425-17.448919c7.418629 4.208527 17.82026 7.482054 22.845123 9.790913l0 24.668068c0 7.774625 8.238034 14.087417 15.977878 14.087417l28.104248 0c7.770533 0 16.00959-6.313814 16.00959-14.087417l0-24.668068c4.995197-2.308859 15.424448-5.612052 22.845123-9.850246l16.943568 17.419253c5.492364 5.524076 14.139588 5.524076 19.631952 0.029666l19.748571-19.904064c5.490318-5.495433 5.433031-14.381011-0.060356-19.875421l-17.468356-16.455608c4.236148-7.423744 7.506605-17.829467 9.816488-22.856376l24.655792 0c7.770533 0 14.051612-8.243149 14.051612-15.988108l0-28.116523C924.993215 775.987405 918.712136 767.745279 910.941602 767.745279zM784.767616 861.07045c-34.909091 0-63.216911-28.322142-63.216911-63.27829 0-34.927504 28.30782-63.277267 63.216911-63.277267 34.938757 0 63.248623 28.350785 63.248623 63.277267C848.01624 832.748308 819.706374 861.07045 784.767616 861.07045z" p-id="6111"></path></svg>