<?xml version="1.0" standalone="no"?><!DOCTYPE svg PUBLIC "-//W3C//DTD SVG 1.1//EN" "http://www.w3.org/Graphics/SVG/1.1/DTD/svg11.dtd"><svg t="1595299994970" class="icon" viewBox="0 0 1024 1024" version="1.1" xmlns="http://www.w3.org/2000/svg" p-id="3568" xmlns:xlink="http://www.w3.org/1999/xlink" width="200" height="200"><defs><style type="text/css"></style></defs><path d="M977.454545 83.781818H46.545455c-18.618182 0-37.236364 13.963636-37.236364 37.236364v791.272727c0 18.618182 13.963636 37.236364 37.236364 37.236364h930.90909c18.618182 0 37.236364-13.963636 37.236364-37.236364v-791.272727c0-23.272727-18.618182-37.236364-37.236364-37.236364z m-479.418181 791.272727l190.836363-195.490909 204.8 195.490909h-395.636363z m442.181818-51.2l-256-242.036363-283.927273 293.236363H125.672727l297.890909-288.581818 102.4 93.090909 46.545455-51.2-148.945455-139.636363-339.781818 330.472727V148.945455h861.090909v674.90909z"  ></path><path d="M819.2 279.272727m-69.818182 0a69.818182 69.818182 0 1 0 139.636364 0 69.818182 69.818182 0 1 0-139.636364 0Z" p-id="3570" ></path></svg>
