<svg t="1594205970893" class="icon" viewBox="0 0 1024 1024" version="1.1" xmlns="http://www.w3.org/2000/svg" p-id="2259" width="200" height="200"><path d="M966.097675 319.412427c21.709987-49.14997 42.847974-120.875927 42.847974-175.741894 0-145.443912-159.281904-196.741881-419.345746-77.153953-215.26387-14.361991-422.441744 147.339911-474.195713 372.913774 61.703963-69.723958 156.541905-164.5959 243.953852-202.315878C250.808108 333.700418 158.256164 456.004344 87.984207 583.450267 46.492232 659.302221 0.00026 781.880147 0.00026 873.494091c0 197.149881 185.707888 172.999895 360.501782 84.011949 62.845962 30.859981 133.117919 31.145981 203.389877 31.145981 194.247882 0 368.497777-108.587934 433.627737-292.043823H755.853802c-105.017936 177.185893-393.637762 105.991936-393.637761-94.871942H1019.799643c12.813992-87.161947-3.309998-191.429884-53.701968-282.323829zM129.118182 693.7542c35.421979 102.299938 107.405935 191.741884 200.531878 246.607851-177.481893 97.879941-346.53379 58.191965-200.531878-246.607851z m231.953859-217.745868c3.999998-110.301933 100.551939-189.741885 207.959874-189.741885 106.835935 0 203.961877 79.439952 207.961875 189.741885H361.072041z m369.071777-375.199773c42.849974-20.573988 97.125941-44.005973 145.115912-44.005973 62.843962 0 108.547934 43.433974 108.547934 107.443935 0 40.005976-14.853991 98.013941-29.137982 135.733917-52.559968-84.583949-131.97192-163.167901-224.525864-199.171879z"  p-id="2260"></path></svg>
