<?xml version="1.0" standalone="no"?><!DOCTYPE svg PUBLIC "-//W3C//DTD SVG 1.1//EN" "http://www.w3.org/Graphics/SVG/1.1/DTD/svg11.dtd"><svg t="1605843819816" class="icon" viewBox="0 0 1024 1024" version="1.1" xmlns="http://www.w3.org/2000/svg" p-id="4185" xmlns:xlink="http://www.w3.org/1999/xlink" width="200" height="200"><defs><style type="text/css"></style></defs><path d="M511.4 116.5L878 228.8v340.9c-4 6.9-18.3 27.5-66 73.6-34.8 33.5-81 74.7-137.5 122.2C611 819 548.7 868.7 513 896.8c-35.7-28.1-98-77.8-161.5-131.2C295 718 248.8 676.8 214 643.2c-47.7-46.1-62-66.7-66-73.6v-341l363.4-112.1m-0.1-52.3L98 191.8v384.3c0 63.9 415 384.2 415 384.2S928 640 928 576V191.7L511.3 64.2z" p-id="4186"></path><path d="M634.6 737.8L508 327.5 392 592.2l-146.6-152H128v-50h138.7l109.5 113.6 140-319.4L645.7 604l107-213.8h143.5v50H783.6z" fill="#e6e6e6" p-id="4187"></path></svg>
