<?xml version="1.0" standalone="no"?><!DOCTYPE svg PUBLIC "-//W3C//DTD SVG 1.1//EN" "http://www.w3.org/Graphics/SVG/1.1/DTD/svg11.dtd"><svg t="1595308322479" class="icon" viewBox="0 0 1024 1024" version="1.1" xmlns="http://www.w3.org/2000/svg" p-id="5518" xmlns:xlink="http://www.w3.org/1999/xlink" width="200" height="200"><defs><style type="text/css"></style></defs><path d="M882.432 948.224H141.504A141.696 141.696 0 0 1 0 806.72v-589.44c0-78.016 63.488-141.504 141.504-141.504h740.928c78.08 0 141.568 63.488 141.568 141.504v589.44a141.696 141.696 0 0 1-141.568 141.504zM141.504 142.4c-41.344 0-74.944 33.6-74.944 74.88v589.44c0 41.28 33.6 74.88 74.944 74.88h740.928c41.344 0 75.008-33.6 75.008-74.88v-589.44c0-41.28-33.6-74.88-75.008-74.88H141.504z" p-id="5519" ></path><path d="M353.984 713.728V310.272L703.296 512l-349.312 201.728z m66.56-288.064V598.4L570.112 512 420.544 425.664z" p-id="5520" ></path></svg>
