<?xml version="1.0" standalone="no"?><!DOCTYPE svg PUBLIC "-//W3C//DTD SVG 1.1//EN" "http://www.w3.org/Graphics/SVG/1.1/DTD/svg11.dtd"><svg t="1595308484872" class="icon" viewBox="0 0 1024 1024" version="1.1" xmlns="http://www.w3.org/2000/svg" p-id="8075" xmlns:xlink="http://www.w3.org/1999/xlink" width="200" height="200"><defs><style type="text/css"></style></defs><path d="M861.696 97.28H167.424A85.68832 85.68832 0 0 0 81.92 183.00416v459.3664A85.68832 85.68832 0 0 0 167.424 728.064h317.55776v139.30496H349.5168a29.66016 29.66016 0 0 0 0 59.32032h330.0864a29.66016 29.66016 0 0 0 0-59.32032h-135.47008V728.064H861.696a85.68832 85.68832 0 0 0 85.504-85.69344v-459.3664A85.69344 85.69344 0 0 0 861.696 97.28z m26.3168 545.08544a26.38336 26.38336 0 0 1-26.3168 26.3936H167.424a26.38336 26.38336 0 0 1-26.3168-26.3936V183.00416a26.38336 26.38336 0 0 1 26.3168-26.3936h694.272a26.38336 26.38336 0 0 1 26.3168 26.3936v459.3664z"  p-id="8076"></path><path d="M272.14848 564.6592a29.59872 29.59872 0 0 1-19.92704-7.68 29.2352 29.2352 0 0 1-1.93536-41.51296l153.96864-167.68512a49.28 49.28 0 0 1 68.73088-4.02944l119.26016 102.48192 149.77024-158.86336a29.76256 29.76256 0 0 1 41.84064-1.37216 29.23008 29.23008 0 0 1 1.3824 41.52832l-156.27264 165.76a49.42336 49.42336 0 0 1-68.28032 3.5584l-119.17312-102.4-147.456 160.62976a29.60384 29.60384 0 0 1-21.90848 9.58464z" p-id="8077"></path></svg>
