<?xml version="1.0" standalone="no"?><!DOCTYPE svg PUBLIC "-//W3C//DTD SVG 1.1//EN" "http://www.w3.org/Graphics/SVG/1.1/DTD/svg11.dtd"><svg t="1595895858833" class="icon" viewBox="0 0 1024 1024" version="1.1" xmlns="http://www.w3.org/2000/svg" p-id="1968" xmlns:xlink="http://www.w3.org/1999/xlink" width="200" height="200"><defs><style type="text/css"></style></defs><path d="M815.104 468.992 648.192 468.992c-13.312 0-21.504 8.192-21.504 21.504s8.192 21.504 21.504 21.504l165.888 0c13.312 0 21.504-8.192 21.504-21.504S827.392 468.992 815.104 468.992zM734.208 303.104c13.312 0 21.504-8.192 21.504-21.504 0-13.312-8.192-21.504-21.504-21.504-12.288 0-21.504 8.192-21.504 21.504C712.704 294.912 720.896 303.104 734.208 303.104zM815.104 303.104c13.312 0 21.504-8.192 21.504-21.504 0-13.312-8.192-21.504-21.504-21.504-12.288 0-21.504 8.192-21.504 21.504C793.6 294.912 805.888 303.104 815.104 303.104zM815.104 388.096 648.192 388.096c-13.312 0-21.504 8.192-21.504 21.504s8.192 21.504 21.504 21.504l165.888 0c13.312 0 21.504-8.192 21.504-21.504S827.392 388.096 815.104 388.096zM815.104 555.008 648.192 555.008c-13.312 0-21.504 8.192-21.504 21.504 0 13.312 8.192 21.504 21.504 21.504l165.888 0c13.312 0 21.504-8.192 21.504-21.504C836.608 563.2 827.392 555.008 815.104 555.008zM482.304 303.104l166.912 0c13.312 0 21.504-8.192 21.504-21.504 0-13.312-8.192-21.504-21.504-21.504L482.304 260.096c-13.312 0-21.504 8.192-21.504 21.504C460.8 294.912 474.112 303.104 482.304 303.104zM315.392 763.904l498.688 0c13.312 0 21.504-8.192 21.504-21.504 0-12.288-8.192-21.504-21.504-21.504L315.392 720.896c-13.312 0-21.504 8.192-21.504 21.504C294.912 754.688 307.2 763.904 315.392 763.904zM921.6 136.192 212.992 136.192c-21.504 0-43.008 17.408-43.008 43.008l0 84.992L84.992 264.192c-21.504 0-43.008 17.408-43.008 43.008l0 230.4 0 145.408L41.984 768c0 68.608 55.296 123.904 123.904 123.904l43.008 0 187.392 0 520.192 0c21.504 0 43.008-17.408 43.008-43.008L959.488 179.2C964.608 157.696 943.104 136.192 921.6 136.192zM921.6 844.8 358.4 844.8 212.992 844.8l-43.008 0c-47.104 0-84.992-38.912-84.992-84.992L84.992 303.104l84.992 0 0 435.2c0 12.288 8.192 21.504 21.504 21.504 13.312 0 21.504-8.192 21.504-21.504L212.992 303.104l0-21.504 0-102.4L921.6 179.2 921.6 844.8zM315.392 677.888l498.688 0c13.312 0 21.504-8.192 21.504-21.504 0-13.312-8.192-21.504-21.504-21.504L315.392 634.88c-13.312 0-21.504 8.192-21.504 21.504C294.912 669.696 307.2 677.888 315.392 677.888zM315.392 303.104c13.312 0 21.504-8.192 21.504-21.504 0-13.312-8.192-21.504-21.504-21.504-12.288 0-21.504 13.312-21.504 21.504S307.2 303.104 315.392 303.104zM401.408 303.104c13.312 0 21.504-8.192 21.504-21.504 0-13.312-8.192-21.504-21.504-21.504s-21.504 8.192-21.504 21.504C379.904 294.912 388.096 303.104 401.408 303.104zM315.392 596.992l208.896 0c13.312 0 21.504-8.192 21.504-21.504L545.792 409.6c0-13.312-8.192-21.504-21.504-21.504L315.392 388.096c-13.312 0-21.504 8.192-21.504 21.504l0 165.888C294.912 584.704 307.2 596.992 315.392 596.992zM336.896 427.008l166.912 0 0 128L336.896 555.008 336.896 427.008z" p-id="1969" ></path></svg>
