<svg t="1594200795999" class="icon" viewBox="0 0 1024 1024" version="1.1" xmlns="http://www.w3.org/2000/svg" p-id="6865" width="200" height="200"><path d="M1007.282372 936.600731 957.286301 936.600731 957.286301 316.672351C957.286301 300.008635 948.439172 284.599306 934.055192 276.208218L680.274007 128.145974C665.80191 119.698286 647.918271 119.641687 633.389622 127.995922 618.866232 136.351471 609.907317 151.842408 609.907317 168.610107L609.907317 936.600731 556.683825 936.600731 556.683825 46.835993C556.683825 31.092336 548.771782 16.39773 535.635893 7.728913 522.500007-0.93464 505.890763-2.41542 491.434449 3.79596L94.839288 174.110713C77.644796 181.49487 66.496126 198.425785 66.496126 217.152062L66.496126 936.600731 16.678918 936.600731C7.520095 936.600731 0.095978 944.029642 0.095978 953.192052L0.095978 1007.174066C0.095978 1016.336476 7.520095 1023.765387 16.678918 1023.765387L1007.282372 1023.765387C1016.437249 1023.765387 1023.861365 1016.336476 1023.861365 1007.174066L1023.861365 953.192052C1023.861365 944.029642 1016.437249 936.600731 1007.282372 936.600731L1007.282372 936.600731ZM739.184278 295.849287C739.184278 286.681613 746.607081 279.251386 755.767219 279.251386L808.440968 279.251386C817.601107 279.251386 825.023909 286.681613 825.023909 295.849287L825.023909 348.570336C825.023909 357.732746 817.601107 365.162973 808.440968 365.162973L755.767219 365.162973C746.607081 365.162973 739.184278 357.732746 739.184278 348.570336L739.184278 295.849287 739.184278 295.849287ZM739.184278 428.599605C739.184278 419.431929 746.607081 412.003018 755.767219 412.003018L808.440968 412.003018C817.601107 412.003018 825.023909 419.431929 825.023909 428.599605L825.023909 481.321968C825.023909 490.484378 817.601107 497.913289 808.440968 497.913289L755.767219 497.913289C746.607081 497.913289 739.184278 490.484378 739.184278 481.321968L739.184278 428.599605 739.184278 428.599605ZM739.184278 561.345972C739.184278 552.183561 746.607081 544.753335 755.767219 544.753335L808.440968 544.753335C817.601107 544.753335 825.023909 552.183561 825.023909 561.345972L825.023909 614.067018C825.023909 623.234694 817.601107 630.664921 808.440968 630.664921L755.767219 630.664921C746.607081 630.664921 739.184278 623.234694 739.184278 614.067018L739.184278 561.345972 739.184278 561.345972ZM739.184278 694.096288C739.184278 684.928612 746.607081 677.499701 755.767219 677.499701L808.440968 677.499701C817.601107 677.499701 825.023909 684.928612 825.023909 694.096288L825.023909 746.81865C825.023909 755.981063 817.601107 763.415237 808.440968 763.415237L755.767219 763.415237C746.607081 763.415237 739.184278 755.981063 739.184278 746.81865L739.184278 694.096288 739.184278 694.096288ZM739.184278 826.84792C739.184278 817.680246 746.607081 810.250017 755.767219 810.250017L808.440968 810.250017C817.601107 810.250017 825.023909 817.680246 825.023909 826.84792L825.023909 879.568967C825.023909 888.731379 817.601107 896.161606 808.440968 896.161606L755.767219 896.161606C746.607081 896.161606 739.184278 888.731379 739.184278 879.568967L739.184278 826.84792 739.184278 826.84792ZM347.855046 163.097655C347.855046 153.935245 355.277848 146.50107 364.437985 146.50107L417.116997 146.50107C426.277134 146.50107 433.699936 153.935245 433.699936 163.097655L433.699936 215.820018C433.699936 224.987694 426.277134 232.416605 417.116997 232.416605L364.437985 232.416605C355.277848 232.416605 347.855046 224.987694 347.855046 215.820018L347.855046 163.097655 347.855046 163.097655ZM347.855046 295.849287C347.855046 286.681613 355.277848 279.251386 364.437985 279.251386L417.116997 279.251386C426.277134 279.251386 433.699936 286.681613 433.699936 295.849287L433.699936 348.570336C433.699936 357.732746 426.277134 365.162973 417.116997 365.162973L364.437985 365.162973C355.277848 365.162973 347.855046 357.732746 347.855046 348.570336L347.855046 295.849287 347.855046 295.849287ZM347.855046 428.599605C347.855046 419.431929 355.277848 412.003018 364.437985 412.003018L417.116997 412.003018C426.277134 412.003018 433.699936 419.431929 433.699936 428.599605L433.699936 481.321968C433.699936 490.484378 426.277134 497.913289 417.116997 497.913289L364.437985 497.913289C355.277848 497.913289 347.855046 490.484378 347.855046 481.321968L347.855046 428.599605 347.855046 428.599605ZM347.855046 561.345972C347.855046 552.183561 355.277848 544.753335 364.437985 544.753335L417.116997 544.753335C426.277134 544.753335 433.699936 552.183561 433.699936 561.345972L433.699936 614.067018C433.699936 623.234694 426.277134 630.664921 417.116997 630.664921L364.437985 630.664921C355.277848 630.664921 347.855046 623.234694 347.855046 614.067018L347.855046 561.345972 347.855046 561.345972ZM347.855046 694.096288C347.855046 684.928612 355.277848 677.499701 364.437985 677.499701L417.116997 677.499701C426.277134 677.499701 433.699936 684.928612 433.699936 694.096288L433.699936 746.81865C433.699936 755.981063 426.277134 763.415237 417.116997 763.415237L364.437985 763.415237C355.277848 763.415237 347.855046 755.981063 347.855046 746.81865L347.855046 694.096288 347.855046 694.096288ZM347.855046 826.84792C347.855046 817.680246 355.277848 810.250017 364.437985 810.250017L417.116997 810.250017C426.277134 810.250017 433.699936 817.680246 433.699936 826.84792L433.699936 879.568967C433.699936 888.731379 426.277134 896.161606 417.116997 896.161606L364.437985 896.161606C355.277848 896.161606 347.855046 888.731379 347.855046 879.568967L347.855046 826.84792 347.855046 826.84792ZM188.164847 295.849287C188.164847 286.681613 195.588965 279.251386 204.747788 279.251386L257.426798 279.251386C266.581675 279.251386 274.009737 286.681613 274.009737 295.849287L274.009737 348.570336C274.009737 357.732746 266.581675 365.162973 257.426798 365.162973L204.747788 365.162973C195.588965 365.162973 188.164847 357.732746 188.164847 348.570336L188.164847 295.849287 188.164847 295.849287ZM188.164847 428.599605C188.164847 419.431929 195.588965 412.003018 204.747788 412.003018L257.426798 412.003018C266.581675 412.003018 274.009737 419.431929 274.009737 428.599605L274.009737 481.321968C274.009737 490.484378 266.581675 497.913289 257.426798 497.913289L204.747788 497.913289C195.588965 497.913289 188.164847 490.484378 188.164847 481.321968L188.164847 428.599605 188.164847 428.599605ZM188.164847 561.345972C188.164847 552.183561 195.588965 544.753335 204.747788 544.753335L257.426798 544.753335C266.581675 544.753335 274.009737 552.183561 274.009737 561.345972L274.009737 614.067018C274.009737 623.234694 266.581675 630.664921 257.426798 630.664921L204.747788 630.664921C195.588965 630.664921 188.164847 623.234694 188.164847 614.067018L188.164847 561.345972 188.164847 561.345972ZM188.164847 694.096288C188.164847 684.928612 195.588965 677.499701 204.747788 677.499701L257.426798 677.499701C266.581675 677.499701 274.009737 684.928612 274.009737 694.096288L274.009737 746.81865C274.009737 755.981063 266.581675 763.415237 257.426798 763.415237L204.747788 763.415237C195.588965 763.415237 188.164847 755.981063 188.164847 746.81865L188.164847 694.096288 188.164847 694.096288ZM188.164847 826.84792C188.164847 817.680246 195.588965 810.250017 204.747788 810.250017L257.426798 810.250017C266.581675 810.250017 274.009737 817.680246 274.009737 826.84792L274.009737 879.568967C274.009737 888.731379 266.581675 896.161606 257.426798 896.161606L204.747788 896.161606C195.588965 896.161606 188.164847 888.731379 188.164847 879.568967L188.164847 826.84792 188.164847 826.84792Z" p-id="6866" ></path></svg>
