<?xml version="1.0" standalone="no"?><!DOCTYPE svg PUBLIC "-//W3C//DTD SVG 1.1//EN" "http://www.w3.org/Graphics/SVG/1.1/DTD/svg11.dtd"><svg t="1595299553747" class="icon" viewBox="0 0 1024 1024" version="1.1" xmlns="http://www.w3.org/2000/svg" p-id="5677" xmlns:xlink="http://www.w3.org/1999/xlink" width="200" height="200"><defs><style type="text/css"></style></defs><path d="M258.885818 273.035636h623.988364c53.946182 0 97.652364 43.706182 97.652363 97.652364v459.962182c0 53.946182-43.752727 97.652364-97.652363 97.652363H167.330909a97.652364 97.652364 0 0 1-97.652364-97.652363V370.688c0-29.509818 13.079273-55.947636 33.745455-73.821091l252.741818-252.741818a46.545455 46.545455 0 0 1 65.815273 65.815273L258.885818 273.035636zM163.234909 368.64a4.561455 4.561455 0 0 0-0.465454 2.001455v459.962181c0 2.513455 2.048 4.561455 4.561454 4.561455h715.543273a4.561455 4.561455 0 0 0 4.561454-4.561455V370.688a4.561455 4.561455 0 0 0-4.561454-4.561455H167.330909a4.561455 4.561455 0 0 0-2.001454 0.465455l-2.094546 2.094545z m234.123636 406.295273a174.312727 174.312727 0 1 1 0-348.625455 174.312727 174.312727 0 0 1 0 348.625455z m0-93.090909a81.221818 81.221818 0 1 0 0-162.443637 81.221818 81.221818 0 0 0 0 162.443637z m276.48-208.989091h111.383273a46.545455 46.545455 0 1 1 0 93.090909h-111.336727a46.545455 46.545455 0 1 1 0-93.090909z m0 153.320727h111.383273a46.545455 46.545455 0 1 1 0 93.090909h-111.336727a46.545455 46.545455 0 1 1 0-93.090909z" p-id="5678" ></path></svg>
