<?xml version="1.0" standalone="no"?><!DOCTYPE svg PUBLIC "-//W3C//DTD SVG 1.1//EN" "http://www.w3.org/Graphics/SVG/1.1/DTD/svg11.dtd"><svg t="1597731807252" class="icon" viewBox="0 0 1024 1024" version="1.1" xmlns="http://www.w3.org/2000/svg" p-id="2217" xmlns:xlink="http://www.w3.org/1999/xlink" width="200" height="200"><defs><style type="text/css"></style></defs><path d="M910.222222 853.333333H113.777778a56.888889 56.888889 0 0 1-56.888889-56.888889v-113.777777a56.888889 56.888889 0 0 1 56.888889-56.888889h341.333333V503.978667a227.555556 227.555556 0 1 1 113.777778 0V625.777778h341.333333a56.888889 56.888889 0 0 1 56.888889 56.888889v113.777777a56.888889 56.888889 0 0 1-56.888889 56.888889zM199.111111 910.222222h625.777778a28.444444 28.444444 0 0 1 0 56.888889h-625.777778a28.444444 28.444444 0 0 1 0-56.888889z"  p-id="2218"></path></svg>
