<?xml version="1.0" standalone="no"?><!DOCTYPE svg PUBLIC "-//W3C//DTD SVG 1.1//EN" "http://www.w3.org/Graphics/SVG/1.1/DTD/svg11.dtd"><svg t="1595308368676" class="icon" viewBox="0 0 1024 1024" version="1.1" xmlns="http://www.w3.org/2000/svg" p-id="6386" xmlns:xlink="http://www.w3.org/1999/xlink" width="200" height="200"><defs><style type="text/css"></style></defs><path d="M814.545455 69.818182H209.454545a46.545455 46.545455 0 0 0-46.545454 46.545454v791.272728a46.545455 46.545455 0 0 0 46.545454 46.545454h605.09091a46.545455 46.545455 0 0 0 46.545454-46.545454V116.363636a46.545455 46.545455 0 0 0-46.545454-46.545454z m-93.09091 744.727273H279.272727a23.272727 23.272727 0 0 1 0-46.545455h442.181818a23.272727 23.272727 0 0 1 0 46.545455z m-465.454545-162.909091a23.272727 23.272727 0 0 1 23.272727-23.272728h302.545455a23.272727 23.272727 0 0 1 0 46.545455H279.272727a23.272727 23.272727 0 0 1-23.272727-23.272727z m512-316.276364a20.712727 20.712727 0 0 1-35.607273 14.661818l-28.858182-28.858182-132.654545 132.421819a23.272727 23.272727 0 0 1-7.447273 5.12 23.272727 23.272727 0 0 1-24.901818-5.12l-113.570909-113.57091-129.861818 129.861819a23.272727 23.272727 0 0 1-32.349091 0 23.272727 23.272727 0 0 1 0-32.581819l145.92-145.92a23.272727 23.272727 0 0 1 32.581818 0l113.570909 113.57091 116.363637-116.363637-34.443637-34.443636A20.712727 20.712727 0 0 1 651.636364 218.530909h95.418181a20.945455 20.945455 0 0 1 20.945455 20.945455z"  p-id="6387"></path></svg>
