<svg t="1594200366408" class="icon" viewBox="0 0 1024 1024" version="1.1" xmlns="http://www.w3.org/2000/svg" p-id="2259" width="200" height="200"><path d="M916.988698 256.288532h-388.120798L678.14513 34.505218c8.530127-8.530127 4.265064-21.325319-4.265063-29.855446-8.530127-8.530127-21.325319-4.265064-29.855446 4.265064 0 0 0 4.265064-4.265064 4.265064L477.687136 256.288532H375.325607L208.988122 8.914836C200.457995 0.384709 187.662803 0.384709 179.132676 4.649772c-8.530127 8.530127-8.530127 21.325319-4.265064 29.855446L324.144842 256.288532H106.626593C46.915701 256.288532 0 303.204232 0 362.915124v554.458283C0 977.084299 46.915701 1024 106.626593 1024h810.362105c59.710892 0 106.626593-46.915701 106.626593-106.626593v-554.458283C1023.615291 303.204232 976.69959 256.288532 916.988698 256.288532zM980.964654 917.373407c0 34.12051-29.855446 63.975956-63.975956 63.975956h-810.362105c-34.12051 0-63.975956-29.855446-63.975956-63.975956v-554.458283C42.650637 328.794615 72.506083 298.939169 106.626593 298.939169h810.362105c34.12051 0 63.975956 29.855446 63.975956 63.975955v554.458283zM703.735513 384.240443h-469.157009C174.867612 384.240443 127.951911 431.156144 127.951911 490.867036v298.55446C127.951911 849.132388 174.867612 896.048089 234.578504 896.048089h469.157009c59.710892 0 106.626593-46.915701 106.626593-106.626593v-298.55446c0-59.710892-46.915701-106.626593-106.626593-106.626593z m63.975955 405.181053c0 34.12051-29.855446 63.975956-63.975955 63.975955h-469.157009c-34.12051 0-63.975956-29.855446-63.975955-63.975955v-298.55446c0-34.12051 29.855446-63.975956 63.975955-63.975956h469.157009c34.12051 0 63.975956 29.855446 63.975955 63.975956v298.55446z m170.602549-362.530416c0 25.590382-17.060255 42.650637-42.650637 42.650637s-42.650637-17.060255-42.650637-42.650637 17.060255-42.650637 42.650637-42.650637 42.650637 17.060255 42.650637 42.650637z m0 127.951912c0 25.590382-17.060255 42.650637-42.650637 42.650637s-42.650637-17.060255-42.650637-42.650637 17.060255-42.650637 42.650637-42.650638 42.650637 17.060255 42.650637 42.650638z" p-id="2260"></path></svg>