<?xml version="1.0" standalone="no"?><!DOCTYPE svg PUBLIC "-//W3C//DTD SVG 1.1//EN" "http://www.w3.org/Graphics/SVG/1.1/DTD/svg11.dtd"><svg t="1606012143723" class="icon" viewBox="0 0 1024 1024" version="1.1" xmlns="http://www.w3.org/2000/svg" p-id="5400" xmlns:xlink="http://www.w3.org/1999/xlink" width="200" height="200"><defs><style type="text/css"></style></defs><path d="M665.8 390c0 53.9 43.7 97.6 97.6 97.6 53.9 0 97.6-43.7 97.6-97.6 0-53.9-43.7-97.6-97.6-97.6-53.9 0-97.6 43.6-97.6 97.6z m-77.2 242.8s0 0.1 0 0z m349.6 1.3v-0.2 0.2z m0-0.3v-0.3 0.3zM851.9 508.2l-8-0.1c-2.8 0-7.1 1.1-9.5 2.4 0 0-6.4 3.7-12.2 6.2-17.5 7.5-37.4 11.9-58.5 11.9-21 0-40.9-4.2-58.3-11.7-5.9-2.5-12.5-6.3-12.5-6.3-2.5-1.4-6.7-2.5-9.5-2.4l-7.9 0.1c-32 4.2-65.5 32.6-75.2 63.2 0 0-10.2 20.7-11.7 61.4-0.1 5.3 4.2 12 9.6 14.9 0 0 54.4 35 165.1 35 110.7 0 165.1-35 165.1-35 5.4-2.9 9.8-10.3 9.6-15-1.4-40.5-11.3-60.4-11.3-60.4-8.8-30.9-42.9-59.5-74.8-64.2zM938.2 633v-0.2 0.2z m0 0.5v-0.4 0.4z m0 0M254.8 481c47.6 0 87.2-34.1 95.8-79.2-13.6-24.3-21.4-52.2-21.8-81.8-17.9-20.9-44.4-34.1-74-34.1-53.9 0-97.6 43.7-97.6 97.6 0 53.8 43.7 97.5 97.6 97.5zM225 602.4c10.8-33.2 36.4-64.1 67.6-85-11.9 3.1-24.5 4.7-37.6 4.7-21 0-40.9-4.2-58.3-11.7-5.9-2.5-12.5-6.3-12.5-6.3-2.5-1.4-6.7-2.5-9.5-2.4l-7.9 0.1c-32 4.2-65.5 32.6-75.2 63.2 0 0-10.2 20.7-11.7 61.4-0.1 5.3 4.2 12 9.6 14.9 0 0 39.1 25 118.1 32.7 4.9-41.9 14.9-66 17.4-71.6z" fill="#AED7FF" p-id="5401"></path><path d="M763.5 708.4l1.2-0.8c0.4-0.3 1-1.3 1.5-2.1-4.4-54.7-18.5-82.2-18.7-82.5l-1.8-4.2c-12.5-37.8-57.6-73.7-99-79l-10.8 0.3c-0.1 0.1-1.7 0.5-2.4 0.8-2.8 1.8-12.1 7.4-21.2 11.7-31.7 15.3-66.4 23.8-103 25.3-36 1.5-72.2-4.3-104.5-16.6-8.8-3.3-17.8-7.8-21.6-9.7-37.3 15.9-70.9 51.5-80.9 88.5 0 0-13.6 30.5-13.3 89.4 0.1 3.6 1.6 7.5 3.9 11.1 37.6 13.8 112.8 34 223.6 29.5 164.4-6.6 246.2-61.1 247-61.7zM526 216.5c-78 0-141.2 63.2-141.2 141.2 0 8.4 0.9 16.6 2.3 24.6 22.3 38.7 64 65 111.8 65 71.1 0 128.9-57.8 128.9-128.9 0-30.8-10.9-59.1-29-81.4-21.3-13-46.1-20.5-72.8-20.5z" fill="#AED7FF" p-id="5402"></path><path d="M500.3 801.7c-173.7 0-262.9-52.5-271.7-58-13.7-7.5-23.5-23.2-23.3-37.7v-0.3c2.2-61.4 16.6-96.3 19.8-103.3 17.7-54.8 75.9-103.4 132.8-111l1.9-0.1 12.6-0.1c7.3-0.1 16.9 2.2 23.3 5.9 0.2 0.1 9.9 5.7 18.4 9.3 26.5 11.4 56.6 17.4 86.9 17.4 30.7 0 60.1-5.9 87.2-17.6 8.4-3.5 17.8-9 17.9-9l0.5-0.3c6.2-3.3 15.7-5.7 22.7-5.7l14 0.1 1.1 0.2c57.1 8.4 115.9 58.7 131.9 112.5 3.3 7.4 17 41.1 19 101.5v0.7h0.4v0.4h-0.4v0.2h0.4v0.6h-0.4 0.4v0.5h-0.4v0.1h0.4-0.4c-0.8 13.2-10.7 28.7-23.1 35.7-8.1 5-97.3 58-271.9 58z m-263.2-95.2c0.1 2 3 7.3 6.8 9.3l1.2 0.7c0.8 0.5 86 53.3 255.1 53.3 169.2 0 254.3-52.8 255.2-53.3l1-0.6c3.2-1.7 6.7-7.3 7.1-9.7-2.1-59.5-16.3-89.4-16.4-89.7l-0.6-1.3-0.4-1.4c-12-42.3-60.1-83.6-105.3-90.8l-11.7-0.1c-1.6 0-5.7 1-7.5 1.9-2 1.1-11.7 6.6-21 10.5-31 13.4-64.6 20.2-99.7 20.2-34.6 0-68.9-6.9-99.4-20-10.2-4.4-21.1-10.7-21.6-10.9-1.3-0.7-5.2-1.7-6.9-1.7h-0.3l-11.7 0.1c-44.3 6.3-92.7 47.3-106.1 89.9l-0.4 1.2-0.5 1.1c-0.1 0.2-14.8 31.3-17 91l0.1 0.1h-0.1c0.1 0 0.1 0.1 0.1 0.2zM500.6 490c-94.7 0-171.8-77.1-171.8-171.8 0-94.7 77.1-171.8 171.8-171.8 94.7 0 171.8 77.1 171.8 171.8-0.1 94.7-77.1 171.8-171.8 171.8z m0-311.7c-77.2 0-139.9 62.8-139.9 139.9 0 77.2 62.8 139.9 139.9 139.9 77.2 0 139.9-62.8 139.9-139.9 0-77.2-62.8-139.9-139.9-139.9z" fill="#1195FE" p-id="5403"></path><path d="M500.3 812.7c-176.4 0-267.7-53.5-277.5-59.6-16.8-9.1-28.8-28.7-28.5-47.3 2.2-61.5 15.9-97.1 20.5-107.4 19.1-58.2 81.2-109.9 141.7-117.9l2.6-0.2 13.2-0.2c9.2-0.1 20.8 2.7 28.8 7.3 0.2 0.1 9.5 5.4 17.3 8.8 25.2 10.8 53.7 16.5 82.5 16.5 29.2 0 57.1-5.6 82.8-16.7 7.8-3.3 16.7-8.4 16.8-8.4l0.7-0.4c8-4.3 19.2-7 28-7l16.7 0.4c61.4 9 123 61.5 140.7 119.5 4.2 9.6 16.2 41.1 19.3 95h0.5l0.4 23.3-2.2 0.1c-4 14-14.3 27.7-27 34.8-9.4 5.8-100.3 59.4-277.3 59.4zM373 502.1h-0.4l-13.9 0.2c-52.3 6.9-106.6 52.4-123.1 103.4l-0.4 1.2c-2.8 6.1-16.6 39.5-18.8 99.1-0.2 10.5 7.4 22.5 17.5 28 9.8 6.1 96.2 56.6 266.5 56.6 170.8 0 256.8-50.6 266-56.4 9.4-5.3 17.2-17.2 18-26.7V706c-2-59.2-15.4-91.7-18.1-97.7l-0.5-1.4c-14.9-49.9-70-96.9-123-104.7h-0.3l-13.3-0.1c-5.1 0-12.8 1.9-17.4 4.4-0.6 0.3-10.3 5.9-19.3 9.7-28.4 12.3-59.2 18.5-91.5 18.5-31.8 0-63.3-6.3-91.2-18.3-9.1-3.9-19.5-9.9-19.6-9.9-4.5-2.5-11.8-4.4-17.2-4.4z m127.3 278.8c-172.2 0-260.2-54.5-261-55l-0.9-0.5c-4.5-2.3-8.2-6.9-10.3-11.4l-2.1-1 0.2-7.3c0.1-2.1 0.2-4.1 0.3-6.1l0.2-4.2c3.5-54.7 17-83.5 17.6-84.8l0.3-0.8c14.7-46.8 66.3-90.5 115-97.5l1.5-0.1 11.7-0.1c3.8 0.1 9.5 1.3 12.6 3.1 1.2 0.7 11.3 6.4 20.5 10.4 29.1 12.5 62 19.1 95.1 19.1 33.6 0 65.7-6.5 95.3-19.3 8.8-3.7 18.1-9 19.9-10 3.5-1.8 9.3-3.3 13-3.3l13.4 0.3c49.7 7.9 100.9 52.1 114.2 98.7l0.3 0.9c1.6 3.5 15.5 34.4 17.6 94.1v1l-0.2 1c-0.8 5.6-6.3 14.3-12.7 17.8l-0.6 0.4c-0.7 0.1-88.3 54.6-260.9 54.6z m-229.2-63.7c34.1 15.1 110.9 41.6 229.2 41.6 164.5 0 248.5-51.1 249.3-51.7l1.2-0.7c0.4-0.3 1.1-1.2 1.6-2-2.2-54.9-15.2-82.9-15.3-83.2l-1.6-4.2c-10.9-38.3-54.6-76-95.7-82.9L629 534c-0.1 0.1-1.7 0.5-2.4 0.7-2.9 1.6-12.4 6.9-21.6 10.8-32.3 14-67.3 21-103.9 21-36.1 0-71.9-7.2-103.7-20.9-9.5-4.1-19.3-9.6-22.2-11.2-0.7-0.2-1.9-0.5-2.4-0.5l-10.6 0.1c-40.3 6.1-84.3 43.6-96.4 82.2l-1.6 3.9c-0.1 0.1-12.6 27.6-15.6 79.5l22.5 17.6z m481.8-13.6zM500.6 501c-100.8 0-182.8-82-182.8-182.8 0-100.8 82-182.8 182.8-182.8s182.8 82 182.8 182.8C683.3 419 601.3 501 500.6 501z m0-343.5c-88.6 0-160.8 72.1-160.8 160.8 0 88.6 72.1 160.8 160.8 160.8S661.4 407 661.4 318.3c-0.1-88.7-72.2-160.8-160.8-160.8z m0 311.7c-83.2 0-151-67.7-151-151s67.7-151 151-151 151 67.7 151 151-67.8 151-151 151z m0-279.9c-71.1 0-128.9 57.8-128.9 128.9 0 71.1 57.8 128.9 128.9 128.9 71.1 0 128.9-57.8 128.9-128.9 0-71.1-57.9-128.9-128.9-128.9z" fill="#1195FE" p-id="5404"></path></svg>