<?xml version="1.0" standalone="no"?><!DOCTYPE svg PUBLIC "-//W3C//DTD SVG 1.1//EN" "http://www.w3.org/Graphics/SVG/1.1/DTD/svg11.dtd"><svg t="1605967224384" class="icon" viewBox="0 0 1024 1024" version="1.1" xmlns="http://www.w3.org/2000/svg" p-id="2038" xmlns:xlink="http://www.w3.org/1999/xlink" width="200" height="200"><defs><style type="text/css"></style></defs><path d="M610.816 969.728c-9.728 0-19.456-5.12-24.576-14.336-6.656-11.776-4.096-26.624 6.656-35.328 45.568-37.376 67.584-83.456 65.536-136.704-2.56-72.704-50.688-156.672-125.952-224.256-5.632 51.712-31.744 102.912-77.312 152.064-36.864 39.424-54.784 80.384-53.248 117.76 1.536 32.768 18.944 63.488 50.688 91.648 9.216 8.192 12.288 20.992 7.168 32.256-4.608 11.264-16.384 17.92-28.672 16.896-138.752-13.312-214.528-78.848-252.928-131.072-48.64-65.536-67.072-148.992-51.2-227.84 9.728-46.592 26.112-87.04 41.984-125.952 19.456-47.616 38.4-92.672 41.472-145.408 0.512-11.776 8.704-21.504 19.968-25.088 11.264-3.584 23.552 0.512 30.72 9.728 22.016 28.672 34.816 57.344 41.984 88.064 107.52-151.04 120.32-259.072 110.592-325.632-1.536-9.728 2.048-19.456 9.728-25.6 7.168-6.144 17.408-8.192 26.624-5.632 7.168 2.048 167.424 55.808 248.32 293.376 9.728-20.992 10.24-44.544 3.072-75.776-2.56-11.776 2.56-24.064 12.8-30.208 10.24-6.144 23.552-5.12 32.768 3.072 83.456 73.216 181.248 267.264 147.456 441.344-17.92 91.136-79.872 213.504-274.944 281.088-2.56 1.024-5.632 1.536-8.704 1.536zM249.856 431.104c-8.192 26.112-18.432 50.688-28.672 75.264-14.848 36.352-30.72 74.24-38.912 115.712-12.8 63.488 2.048 130.048 40.96 182.784 24.576 33.28 68.096 73.216 141.312 95.232-11.264-21.504-17.92-44.544-18.944-68.096-2.56-52.736 20.48-108.032 68.096-158.72 52.736-56.832 72.704-112.128 59.904-168.96-2.56-11.264 2.048-23.04 11.776-29.696 9.728-6.656 22.528-6.144 31.744 0.512 115.712 81.408 193.024 201.728 197.12 305.664 1.024 31.232-4.096 61.44-15.36 89.088 77.312-47.616 124.928-112.128 140.8-193.536 23.04-117.76-24.576-249.344-80.384-331.264-7.168 31.744-24.576 58.88-53.248 84.48-7.168 6.656-17.408 8.704-27.136 6.144-9.216-3.072-16.896-10.24-18.944-19.968-45.568-174.08-135.168-253.44-186.88-286.208-1.024 111.616-56.832 236.544-166.4 371.712-7.168 9.216-19.456 12.8-30.72 9.216s-18.944-13.312-19.456-25.088c-1.024-19.968-3.072-37.888-6.656-54.272z" p-id="2039"></path></svg>