<?xml version="1.0" standalone="no"?><!DOCTYPE svg PUBLIC "-//W3C//DTD SVG 1.1//EN" "http://www.w3.org/Graphics/SVG/1.1/DTD/svg11.dtd"><svg t="1605968160780" class="icon" viewBox="0 0 1024 1024" version="1.1" xmlns="http://www.w3.org/2000/svg" p-id="9972" xmlns:xlink="http://www.w3.org/1999/xlink" width="200" height="200"><defs><style type="text/css"></style></defs><path d="M948.659 855.667a80.435 80.435 0 0 1-69.935 40.833h-733.42a80.338 80.338 0 0 1-68.779-121.821l366.706-608.325a80.306 80.306 0 0 1 137.561 0l366.71 608.327a80.475 80.475 0 0 1 1.157 80.986z m-51-50.922l-366.71-608.327a22.106 22.106 0 0 0-37.868 0L126.37 804.745a22.116 22.116 0 0 0 18.934 33.535h733.42a22.114 22.114 0 0 0 18.933-33.535z m-384.828-39.602a41.594 41.594 0 0 1 0-83.188c22.139 0 41.042 18.906 41.042 41.594-0.003 22.151-18.904 41.594-41.042 41.594z m-0.541-120.458c-17.28 0-31.862-7.022-31.864-23.766 0-64.28-7.559-156.648-7.559-220.926 0-21.068 17.28-32.951 39.421-32.951 21.061 0 38.881 11.885 38.881 32.951 0 64.28-7.559 156.647-7.559 220.926-0.003 16.744-18.364 23.766-31.323 23.766z" fill="" p-id="9973"></path></svg>