<?xml version="1.0" standalone="no"?><!DOCTYPE svg PUBLIC "-//W3C//DTD SVG 1.1//EN" "http://www.w3.org/Graphics/SVG/1.1/DTD/svg11.dtd"><svg t="1605968002129" class="icon" viewBox="0 0 1024 1024" version="1.1" xmlns="http://www.w3.org/2000/svg" p-id="4123" xmlns:xlink="http://www.w3.org/1999/xlink" width="200" height="200"><defs><style type="text/css"></style></defs><path d="M971.533474 584.030316h-121.869474v-21.746527c0-12.274526-0.592842-24.252632-1.765053-36.082526h123.782737a28.928 28.928 0 0 1-0.14821 57.829053zM770.344421 340.264421a350.989474 350.989474 0 0 0-40.178526-41.121684l90.112-92.739369a27.701895 27.701895 0 0 1 40.030316 0 29.776842 29.776842 0 0 1 0 41.269895l-89.96379 92.591158z m23.04 571.850105h65.589895a28.981895 28.981895 0 0 1 28.025263 29.911579A28.995368 28.995368 0 0 1 858.974316 970.105263H165.443368a28.995368 28.995368 0 0 1-28.025263-29.925052 28.968421 28.968421 0 0 1 28.025263-28.065685h65.589895V564.655158c-4.217263-155.540211 118.285474-285.049263 273.623579-289.266526 155.324632-4.217263 284.672 118.447158 288.87579 274.000842 0.148211 5.079579 0.148211 10.172632 0 15.265684l-0.148211 347.459368z m-56.131368-328.08421c3.489684-124.416-94.396632-241.583158-218.650948-245.072842-124.254316-3.489684-227.799579 108.005053-231.289263 232.434526-0.121263 4.203789-0.121263 8.421053 0 12.638316v328.08421h449.940211v-328.08421zM517.160421 460.665263a27.809684 27.809684 0 0 1 39.882105 0c11.034947 11.493053 11.034947 29.642105 0 41.121684l-61.157052 62.868211h101.039158a28.442947 28.442947 0 0 1 28.065684 28.833684v0.161684c0.040421 3.907368-0.714105 7.774316-2.209684 11.385263a30.490947 30.490947 0 0 1-6.952421 30.181053l-110.18779 113.596632a28.779789 28.779789 0 0 1-40.730947 0.633263l-0.633263-0.633263a30.585263 30.585263 0 0 1 0-42.60379l81.098105-83.563789h-98.533053a327.302737 327.302737 0 0 1-35.597474-11.546948 29.709474 29.709474 0 0 1 0-40.973473l105.916632-109.460211zM484.513684 218.677895V82.000842c0-15.521684 12.570947-28.106105 28.065684-28.106105 15.494737 0 28.065684 12.584421 28.065685 28.106105V218.677895c-9.458526-0.741053-18.755368-1.482105-28.362106-1.482106-9.606737 0-18.607158 0.741053-27.769263 1.482106z m-225.711158 116.412631l-91.149473-93.925052a29.507368 29.507368 0 0 1 0-40.825263 27.378526 27.378526 0 0 1 39.747368 0l91.877053 94.517894a346.933895 346.933895 0 0 0-40.474948 40.232421z m-83.900631 227.193263v21.746527H52.884211a28.981895 28.981895 0 0 1-28.025264-29.925053 28.968421 28.968421 0 0 1 28.025264-28.05221h123.782736a366.106947 366.106947 0 0 0-1.765052 36.230736z" p-id="4124"></path></svg>